<svg width="13" height="11" viewBox="0 0 13 11" fill="none" xmlns="http://www.w3.org/2000/svg">
<path d="M4.41424 10.4256L4.41027 10.4256C3.77452 10.4264 3.14539 10.3356 2.54152 10.1586C2.5805 10.1486 2.61941 10.1381 2.65821 10.1273C3.36075 9.93046 4.0176 9.59711 4.59122 9.14625L5.69438 8.27917L4.29149 8.25323C3.87114 8.24545 3.46373 8.10641 3.1263 7.85558C2.99804 7.76024 2.88233 7.65056 2.7811 7.52923C2.92184 7.51175 3.06156 7.48434 3.19921 7.44706L3.16783 6.47442C2.70761 6.3811 2.29436 6.13012 1.99934 5.76476C1.86726 5.60119 1.76259 5.41928 1.68776 5.2261C1.84816 5.2577 2.01139 5.27623 2.17585 5.28123L3.91812 5.33426L2.46888 4.36575C2.04236 4.08071 1.74047 3.64389 1.62464 3.14415C1.56525 2.88793 1.55705 2.62504 1.59789 2.36989C2.15618 2.91884 2.79684 3.37985 3.4982 3.73541C4.4535 4.21972 5.50003 4.49757 6.56975 4.55092L7.23125 4.58391L7.08176 3.93869C7.01328 3.64312 7.01235 3.33592 7.07906 3.03994C7.14576 2.74397 7.27838 2.46685 7.46702 2.22923C7.65568 1.9916 7.8955 1.79959 8.16863 1.66751C8.44177 1.53542 8.74118 1.46664 9.04458 1.46631L9.04473 1.46631C9.3202 1.46592 9.59281 1.52216 9.84565 1.63153C10.0985 1.74089 10.3261 1.90106 10.5145 2.10209L10.7042 2.30452L10.9763 2.25072C11.0341 2.2393 11.0916 2.22697 11.1489 2.21374L11.3975 2.94321C11.3546 2.97664 11.311 3.00934 11.2668 3.04127L11.0462 3.20065L11.0603 3.47243C11.1069 4.37191 10.9693 5.27143 10.6557 6.11579C10.3422 6.96016 9.85951 7.73158 9.23717 8.38268C8.61483 9.03377 7.86601 9.55082 7.03665 9.90213C6.20729 10.2534 5.3149 10.4316 4.41424 10.4256Z" stroke="white"/>
</svg>
